<?xml version="1.0" encoding="utf-8"?>
<!-- Generator: Adobe Illustrator 16.0.0, SVG Export Plug-In . SVG Version: 6.00 Build 0)  -->
<!DOCTYPE svg PUBLIC "-//W3C//DTD SVG 1.1//EN" "http://www.w3.org/Graphics/SVG/1.1/DTD/svg11.dtd">
<svg version="1.1" id="Layer_1" xmlns="http://www.w3.org/2000/svg" xmlns:xlink="http://www.w3.org/1999/xlink" x="0px" y="0px"
	 width="512px" height="512px" viewBox="0 0 512 512" enable-background="new 0 0 512 512" xml:space="preserve">
<path d="M438.815,395.7L338.509,246.2c-12.8-20.3-19.009-44.4-19.009-70.2c0,0,0-73.5,0-93s12.592-33.25,15.009-42.083
	c2.296-8.392,0.513-8.417-15.188-8.417H192.526c-15.999,0-18.548,0.009-16.311,8.416C178.633,50,191.5,64.3,191.5,83.5
	s0,92.5,0,92.5c0,25.8-7.285,49.8-20.085,70.2l-49.279,76.5L73.035,395.6c-5.8,9-9.051,20.7-9.051,32.2
	c0,28,16.347,52.7,63.246,52.7h257.589c46.998,0,63.196-24.7,63.196-52.7C447.916,416.3,444.615,404.7,438.815,395.7z M409.218,441
	c-4.399,4.2-11.602,7.5-24.499,7.5h-257.59c-12.8,0-20.8-3.5-25.199-7.7c-2.7-2.6-6-7.05-6-13.35c0-5,1.4-10.125,3.9-14.125
	l99.039-150.392c15.699-25.2,24.632-55.231,24.632-86.933V64.5h64v111.4c0,31.199,7.761,61.3,23.859,87l100.522,150
	c2.499,4,3.968,9.25,3.968,14.25C415.85,433.55,411.918,438.4,409.218,441z"/>
</svg>
