<?xml version="1.0" encoding="utf-8"?>
<!-- Generator: Adobe Illustrator 16.0.0, SVG Export Plug-In . SVG Version: 6.00 Build 0)  -->
<!DOCTYPE svg PUBLIC "-//W3C//DTD SVG 1.1//EN" "http://www.w3.org/Graphics/SVG/1.1/DTD/svg11.dtd">
<svg version="1.1" id="Layer_1" xmlns="http://www.w3.org/2000/svg" xmlns:xlink="http://www.w3.org/1999/xlink" x="0px" y="0px"
	 width="320px" height="384px" viewBox="0 0 320 384" enable-background="new 0 0 320 384" xml:space="preserve">
<path d="M313.365,376.5c-4.4,4.2-11.604,7.5-24.505,7.5H31.206c-12.803,0-20.805-3.5-25.205-7.7C3.3,373.7,0,369.25,0,362.95
	c0-5,1.4-10.125,3.9-14.125l99.064-150.392c15.703-25.201,24.638-55.231,24.638-86.934V0h64.017v111.4c0,31.2,7.763,61.3,23.865,87
	l100.548,150c2.499,4,3.969,9.25,3.969,14.25C319.999,369.05,316.066,373.9,313.365,376.5z"/>
</svg>
